<?xml version="1.0" standalone="no"?>
<!DOCTYPE svg PUBLIC "-//W3C//DTD SVG 20010904//EN"
 "http://www.w3.org/TR/2001/REC-SVG-20010904/DTD/svg10.dtd">
<svg version="1.0" xmlns="http://www.w3.org/2000/svg"
 width="256.000000pt" height="256.000000pt" viewBox="0 0 256.000000 256.000000"
 preserveAspectRatio="xMidYMid meet">
<metadata>
Created by potrace 1.11, written by Peter Selinger 2001-2013
</metadata>
<g transform="translate(0.000000,256.000000) scale(0.100000,-0.100000)"
fill="#000000" stroke="none">
<path d="M1100 2543 c-190 -27 -387 -105 -549 -216 -96 -66 -250 -220 -317
-317 -406 -589 -259 -1387 328 -1787 147 -99 324 -172 498 -204 95 -17 321
-19 419 -3 333 53 625 230 827 501 109 146 194 337 229 515 25 123 27 342 5
464 -71 397 -314 728 -672 917 -107 57 -256 107 -358 122 -25 3 -54 9 -64 12
-40 12 -254 9 -346 -4z"/>
</g>
</svg>
